<?xml version="1.0" standalone="no"?>
<!DOCTYPE svg PUBLIC "-//W3C//DTD SVG 20010904//EN"
 "http://www.w3.org/TR/2001/REC-SVG-20010904/DTD/svg10.dtd">
<svg version="1.0" xmlns="http://www.w3.org/2000/svg"
 width="180.000000pt" height="180.000000pt" viewBox="0 0 180.000000 180.000000"
 preserveAspectRatio="xMidYMid meet">
<metadata>
Created by potrace 1.14, written by Peter Selinger 2001-2017
</metadata>
<g transform="translate(0.000000,180.000000) scale(0.100000,-0.100000)"
fill="#000000" stroke="none">
<path d="M773 1628 c-41 -35 -69 -68 -99 -116 -6 -9 -58 35 -81 67 l-25 36 6
-35 c4 -19 11 -36 16 -38 6 -2 10 -9 10 -16 0 -8 -19 -15 -50 -19 -28 -3 -77
-20 -109 -37 -63 -34 -146 -113 -136 -130 4 -6 3 -9 -2 -8 -4 2 -37 -29 -73
-67 -35 -39 -80 -82 -99 -97 -42 -35 -27 -37 19 -3 19 14 37 25 41 25 18 0 87
55 124 98 98 115 138 148 215 177 86 33 165 37 205 11 40 -26 73 -85 109 -193
19 -54 53 -137 77 -183 35 -71 43 -81 48 -62 3 13 9 23 14 23 4 -1 13 -1 20
-1 7 0 18 -18 24 -41 8 -32 8 -39 -3 -35 -7 3 -15 0 -17 -7 -3 -8 -10 -5 -21
8 -16 19 -16 18 -1 -15 9 -19 25 -51 36 -71 40 -76 8 -55 -52 32 -21 32 -44
59 -50 61 -7 2 -20 24 -30 48 -10 25 -18 40 -18 33 -2 -23 39 -104 49 -98 5 3
7 0 4 -8 -6 -16 63 -107 102 -134 53 -36 122 -104 127 -126 5 -19 5 -20 -6 -5
-19 25 -86 56 -144 66 -29 5 -50 6 -48 2 3 -4 -10 -11 -29 -14 -30 -6 -83 -46
-60 -46 5 0 10 -14 11 -31 3 -44 12 -48 35 -16 11 15 29 32 40 38 19 10 19 9
4 -20 -27 -50 -15 -171 16 -171 5 0 6 -4 3 -10 -4 -6 9 -10 32 -9 l38 1 -34
12 c-33 12 -61 39 -51 50 3 2 37 6 75 7 39 2 76 7 83 12 15 12 15 8 1 -32 -6
-17 -14 -31 -18 -31 -4 0 -16 -7 -27 -16 -18 -14 -18 -15 6 -9 39 10 60 42 60
89 0 39 13 66 32 66 9 0 22 -71 21 -113 0 -32 -1 -31 37 -12 16 8 36 12 44 9
9 -3 16 -1 16 5 0 21 2 26 12 38 6 7 15 10 21 6 5 -3 7 -2 4 4 -8 13 36 66 59
69 13 2 27 -9 44 -33 l24 -35 23 28 c30 38 48 98 63 211 7 50 16 97 20 104 6
9 18 1 44 -27 46 -50 46 -41 -3 32 -47 72 -65 125 -62 182 1 27 -6 59 -18 85
-25 51 -109 149 -122 142 -5 -4 -6 2 -2 11 5 13 2 16 -8 12 -10 -4 -15 2 -17
18 -2 21 3 24 31 24 27 1 17 7 -58 40 -49 21 -118 52 -153 69 -34 17 -70 31
-80 31 -10 0 -22 4 -27 8 -37 32 -184 41 -275 17 -30 -8 -56 -13 -57 -11 -6 6
16 56 25 56 4 0 18 14 30 30 13 17 21 30 19 30 -2 0 -26 -19 -54 -42z m-288
-158 c-3 -5 -11 -10 -16 -10 -6 0 -7 5 -4 10 3 6 11 10 16 10 6 0 7 -4 4 -10z
m395 -30 c0 -5 -7 -7 -15 -4 -8 4 -15 8 -15 10 0 2 7 4 15 4 8 0 15 -4 15 -10z
m153 -29 c53 -24 153 -101 131 -101 -4 0 -20 11 -34 25 -15 14 -63 44 -106 65
-91 45 -84 54 9 11z m435 -426 c0 -25 -2 -24 -9 10 -10 51 -10 92 1 50 4 -16
8 -43 8 -60z m-353 33 c25 -11 34 -28 15 -28 -5 0 -10 -7 -10 -16 0 -13 -5
-11 -24 7 -13 13 -22 29 -19 36 6 16 6 16 38 1z m215 -8 c0 -5 -4 -10 -10 -10
-5 0 -10 5 -10 10 0 6 5 10 10 10 6 0 10 -4 10 -10z m-70 -28 c0 -15 -2 -15
-10 -2 -13 20 -13 33 0 25 6 -3 10 -14 10 -23z m-53 12 c-3 -3 -12 -4 -19 -1
-8 3 -5 6 6 6 11 1 17 -2 13 -5z m88 -201 c-4 -35 -9 -62 -12 -59 -3 2 -2 38
2 78 5 40 10 67 13 60 2 -8 1 -43 -3 -79z m-265 -153 c0 -5 -7 -10 -15 -10 -8
0 -15 5 -15 10 0 6 7 10 15 10 8 0 15 -4 15 -10z m30 -40 c0 -13 -7 -20 -20
-20 -19 0 -27 20 -13 33 13 14 33 6 33 -13z"/>
<path d="M350 1155 c-15 -18 -34 -20 -25 -2 4 6 -2 2 -13 -10 -10 -12 -29 -65
-42 -117 -26 -105 -45 -133 -25 -36 7 33 9 57 4 55 -4 -3 -11 -20 -14 -37 -4
-18 -13 -38 -21 -45 -20 -20 -34 -80 -35 -148 -1 -45 -3 -54 -9 -35 -8 24 -8
23 -9 -8 -1 -41 23 -101 49 -119 11 -8 20 -24 21 -36 1 -13 6 -4 12 21 10 34
14 41 25 31 14 -15 15 -67 2 -124 l-9 -40 28 31 c16 17 30 37 33 44 3 9 15 7
46 -9 l42 -22 10 26 c6 15 10 30 10 35 0 11 41 40 56 40 9 0 8 -8 -3 -30 -15
-31 -11 -91 9 -135 8 -19 8 -19 4 2 -3 20 0 22 44 21 27 0 54 3 61 8 9 5 11
-3 6 -32 -5 -31 -4 -35 5 -20 14 26 4 146 -17 186 -17 33 -44 47 -100 53 -38
5 -85 -22 -85 -48 0 -7 -6 -24 -14 -39 l-13 -26 -32 63 c-20 40 -33 84 -38
127 -7 68 -21 60 -22 -12 -1 -20 -5 -40 -11 -43 -6 -4 -10 30 -10 94 0 109 16
172 72 285 29 57 33 81 8 51z m185 -565 c3 -6 -1 -13 -10 -16 -19 -8 -30 0
-20 15 8 14 22 14 30 1z m16 -50 c6 0 7 5 4 10 -3 6 -1 10 4 10 14 0 14 -27 0
-36 -11 -7 -29 13 -28 31 0 6 3 4 6 -2 2 -7 9 -13 14 -13z"/>
<path d="M841 954 c0 -11 3 -14 6 -6 3 7 2 16 -1 19 -3 4 -6 -2 -5 -13z"/>
<path d="M865 830 c-4 -7 3 -8 22 -4 38 9 42 14 10 14 -14 0 -29 -5 -32 -10z"/>
<path d="M550 806 c0 -8 4 -17 9 -20 5 -4 7 3 4 14 -6 23 -13 26 -13 6z"/>
<path d="M486 773 c-6 -14 -5 -15 5 -6 7 7 10 15 7 18 -3 3 -9 -2 -12 -12z"/>
<path d="M570 764 c0 -18 59 -104 72 -104 10 0 10 2 -1 9 -7 5 -26 31 -42 57
-16 27 -29 44 -29 38z"/>
<path d="M1252 467 c-12 -13 -42 -81 -42 -92 0 -18 24 13 41 53 20 46 20 63 1
39z"/>
<path d="M1394 448 l-19 -23 23 19 c21 18 27 26 19 26 -2 0 -12 -10 -23 -22z"/>
<path d="M500 440 c0 -6 7 -10 15 -10 8 0 15 2 15 4 0 2 -7 6 -15 10 -8 3 -15
1 -15 -4z"/>
<path d="M1140 232 c0 -5 14 -7 30 -4 17 2 30 6 30 8 0 2 -13 4 -30 4 -16 0
-30 -4 -30 -8z"/>
<path d="M1260 233 c109 -7 220 -7 220 0 0 4 -60 6 -132 5 -73 -1 -113 -3 -88
-5z"/>
<path d="M1027 175 c-68 -76 -127 -90 -252 -57 -22 6 -41 9 -43 7 -3 -2 -7
-19 -11 -37 -5 -26 -13 -34 -36 -38 -21 -4 -29 -11 -30 -28 l-2 -22 282 0 282
0 13 25 c7 13 16 22 20 20 4 -3 11 12 15 33 8 35 8 36 15 12 7 -21 8 -22 10
-5 1 11 2 23 1 28 0 4 11 7 25 7 43 0 16 20 -29 21 -23 1 -53 5 -67 9 -15 5
24 7 95 4 107 -4 123 -2 153 16 17 11 32 25 32 31 0 7 -7 5 -19 -5 -17 -16
-19 -16 -24 4 -6 24 -13 24 -192 10 -101 -9 -130 -8 -143 2 -13 11 -13 8 2
-19 9 -18 21 -33 26 -33 6 0 5 -8 -2 -20 -11 -18 -14 -17 -30 20 -10 22 -23
40 -29 40 -6 0 -9 7 -5 15 10 28 -9 14 -57 -40z m109 -101 c-5 -19 -10 -24
-17 -17 -8 8 -7 18 1 33 6 12 14 19 17 16 3 -3 2 -17 -1 -32z"/>
<path d="M888 183 c7 -3 16 -2 19 1 4 3 -2 6 -13 5 -11 0 -14 -3 -6 -6z"/>
<path d="M818 173 c12 -2 30 -2 40 0 9 3 -1 5 -23 4 -22 0 -30 -2 -17 -4z"/>
</g>
</svg>
